<?xml version="1.0" encoding="utf-8"?>
<!-- Generator: Adobe Illustrator 25.1.0, SVG Export Plug-In . SVG Version: 6.00 Build 0)  -->
<svg version="1.1" id="Layer_1" xmlns="http://www.w3.org/2000/svg" xmlns:xlink="http://www.w3.org/1999/xlink" x="0px" y="0px"
	 viewBox="0 0 216 72" style="enable-background:new 0 0 216 72;" xml:space="preserve">
<style type="text/css">
	.st0{fill:#37A794;}
</style>
<g>
	<g>
		<g>
			<path d="M95.2,50.4c0.4,0.6,0.2,1.4-0.4,1.8c-0.4,0.2-0.8,0.4-1.3,0.6c-0.8,0.3-1.7,0.5-2.6,0.5c-0.7,0-1.4-0.1-2-0.3
				c-0.6-0.2-1.3-0.4-1.8-0.8c-0.6-0.3-1.1-0.7-1.5-1.2c-0.5-0.5-0.9-1-1.2-1.5c-0.3-0.6-0.6-1.2-0.8-1.8c-0.2-0.6-0.3-1.3-0.3-2
				c0-0.7,0.1-1.4,0.3-2c0.2-0.7,0.4-1.3,0.8-1.8c0.3-0.6,0.7-1.1,1.2-1.5c0.5-0.5,1-0.9,1.5-1.2c0.6-0.3,1.2-0.6,1.8-0.8
				c0.6-0.2,1.3-0.3,2-0.3c0.9,0,1.8,0.2,2.6,0.5c0.4,0.2,0.9,0.4,1.3,0.6c0.6,0.4,0.8,1.2,0.4,1.8l-0.2,0.3
				c-0.4,0.6-1.2,0.8-1.8,0.4c-0.2-0.1-0.3-0.2-0.5-0.3c-0.6-0.2-1.2-0.4-1.8-0.4c-0.7,0-1.3,0.1-1.8,0.4s-1.1,0.6-1.5,1
				c-0.4,0.4-0.8,0.9-1,1.5c-0.2,0.6-0.4,1.2-0.4,1.8c0,0.6,0.1,1.2,0.4,1.8c0.2,0.6,0.6,1.1,1,1.5c0.4,0.4,0.9,0.8,1.5,1
				s1.2,0.4,1.8,0.4c0.6,0,1.3-0.1,1.8-0.4c0.2-0.1,0.4-0.2,0.5-0.3c0.6-0.4,1.4-0.2,1.8,0.4L95.2,50.4z"/>
			<path d="M108.9,53h-0.3c-0.7,0-1.3-0.6-1.3-1.3v-1c0-0.4-0.3-0.7-0.7-0.7h-4.6c-0.4,0-0.7,0.3-0.7,0.7v1c0,0.7-0.6,1.3-1.3,1.3
				h-0.3c-0.7,0-1.3-0.6-1.3-1.3v-7.5c0-0.8,0.2-1.6,0.5-2.3c0.3-0.7,0.7-1.3,1.3-1.9c0.5-0.5,1.2-1,1.9-1.3
				c0.7-0.3,1.5-0.5,2.3-0.5c0.8,0,1.6,0.2,2.3,0.5c0.7,0.3,1.3,0.7,1.9,1.3s1,1.2,1.3,1.9c0.3,0.7,0.5,1.5,0.5,2.3v7.5
				C110.2,52.4,109.6,53,108.9,53z M106,47.1c0.7,0,1.3-0.6,1.3-1.3v-1.6c0-0.4-0.1-0.8-0.2-1.1c-0.2-0.4-0.4-0.7-0.6-0.9
				s-0.6-0.5-0.9-0.6c-0.4-0.2-0.7-0.2-1.1-0.2c-0.4,0-0.8,0.1-1.1,0.2c-0.4,0.2-0.7,0.4-0.9,0.6c-0.3,0.3-0.5,0.6-0.6,0.9
				c-0.2,0.4-0.2,0.7-0.2,1.1v1.6c0,0.7,0.6,1.3,1.3,1.3H106z"/>
			<path d="M124.3,53h-1.1c-0.5,0-0.9-0.2-1.1-0.6l-4.1-6.9c-0.3-0.6-1.3-0.3-1.3,0.3v5.9c0,0.7-0.6,1.3-1.3,1.3h-0.3
				c-0.7,0-1.3-0.6-1.3-1.3V39.5c0-0.7,0.6-1.3,1.3-1.3h1.1c0.5,0,0.9,0.2,1.1,0.6l4.1,6.9c0.3,0.6,1.3,0.3,1.3-0.3v-5.9
				c0-0.7,0.6-1.3,1.3-1.3h0.3c0.7,0,1.3,0.6,1.3,1.3v12.1C125.6,52.4,125,53,124.3,53z"/>
			<path d="M131.1,53h-0.3c-0.7,0-1.3-0.6-1.3-1.3V39.5c0-0.7,0.6-1.3,1.3-1.3h0.3c0.7,0,1.3,0.6,1.3,1.3v12.1
				C132.4,52.4,131.8,53,131.1,53z"/>
			<path d="M146.6,53h-1.1c-0.5,0-0.9-0.2-1.1-0.6l-4.1-6.9c-0.3-0.6-1.3-0.3-1.3,0.3v5.9c0,0.7-0.6,1.3-1.3,1.3h-0.3
				c-0.7,0-1.3-0.6-1.3-1.3V39.5c0-0.7,0.6-1.3,1.3-1.3h1.1c0.5,0,0.9,0.2,1.1,0.6l4.1,6.9c0.3,0.6,1.3,0.3,1.3-0.3v-5.9
				c0-0.7,0.6-1.3,1.3-1.3h0.3c0.7,0,1.3,0.6,1.3,1.3v12.1C147.9,52.4,147.3,53,146.6,53z"/>
			<path d="M160.5,53H153c-0.7,0-1.3-0.6-1.3-1.3V39.5c0-0.7,0.6-1.3,1.3-1.3h7.5c0.7,0,1.3,0.6,1.3,1.3v0.3c0,0.7-0.6,1.3-1.3,1.3
				H156c-0.7,0-1.3,0.6-1.3,1.3v0.3c0,0.7,0.6,1.3,1.3,1.3h2.2c0.7,0,1.3,0.6,1.3,1.3v0.3c0,0.7-0.6,1.3-1.3,1.3H156
				c-0.7,0-1.3,0.6-1.3,1.3v0.3c0,0.7,0.6,1.3,1.3,1.3h4.5c0.7,0,1.3,0.6,1.3,1.3v0.3C161.8,52.4,161.2,53,160.5,53z"/>
		</g>
		<path d="M37.1,2.6c-18.4,0-33.5,15-33.5,33.5c0,0.7,0,1.4,0.1,2c0,0,0,0,0,0c0,0,0,0,0,0c0.4,5,1.7,5.9,2.2,6.2
			c0.9,0.6,2,0.7,3.1,0.4c2.5-0.8,5-3.9,6.8-8.4c3.2-8.3,6.5-13.1,13.6-13.5c8-0.4,11.9,1.3,12.8,3c1.6,3,2.9,3.9,5.5,3.9
			c1,0,3.3,0.3,5.1,0.5c1.3,0.2,2.5,0.3,3.2,0.3c0.3,0,0.5,0,0.8,0c0.2,0,0.5,0,0.7,0c0.1,2.2-0.1,5.3-0.5,6.2
			c-0.9,1.7-3.2,5-5.5,4.8l-1.1-0.1l-0.5,0.9c-1.3,2.3-3,2.4-4.8,2.2c-1.1-0.1-2.4,0.1-3.8,0.7c-1-3.2-3-6-5.8-8.3
			c-0.2-0.2-0.5-0.4-0.7-0.6c-2.1-1.7-4.5-3.6-4.9-6.4c-0.1-0.9-0.9-1.6-1.9-1.5c-0.9,0.1-1.6,0.9-1.5,1.9c0.5,4.1,3.7,6.7,6.1,8.6
			c0.2,0.2,0.5,0.4,0.7,0.5c3.1,2.5,4.8,5.6,5.3,9.3c0.2,1.8,0.1,2.5,0,2.7c-0.2,0-0.7,0-1,0c-0.2,0-0.4,0-0.6,0
			c-2.4-0.1-8.2-1.1-10.8-2.7c-1.9-1.1-1.9-2.4-1.5-5c0.4-2.4,0-3.5-0.7-4.9c-0.1-0.2-0.2-0.4-0.2-0.6c-0.1-0.3-0.2-0.7,0.2-1.8
			c0.4-0.9,0-1.8-0.9-2.2c-0.9-0.4-1.8,0-2.2,0.9c-0.7,1.7-0.8,3.1-0.2,4.5c0.1,0.2,0.2,0.4,0.3,0.6c0.5,1,0.6,1.4,0.4,3
			c-0.4,2.4-0.9,6,3.1,8.4c2.8,1.7,7.7,2.6,10.6,3c-0.2,1-0.5,1.9-0.7,2.9c-1.1,4.6-1.8,7.2-1.3,8.8c0.1,0.5,0.5,1.3,1.5,1.9
			c1.1,0.6,2.6,0.9,4.3,0.9c2.3,0,5-0.5,7.3-1.1c0,0,0,0,0,0c0,0,0,0,0,0c14.2-4.1,24.2-17.3,24.2-32.1C70.6,17.7,55.6,2.6,37.1,2.6
			z M45.5,65c-5.1,1.4-8.3,1-9,0.6c-0.1-1.1,0.7-4.5,1.4-7c0.3-1.1,0.6-2.3,0.8-3.4c0.9,0,1.8-0.2,2.6-1c1-1,1.2-2.6,0.9-5.4
			c1.4-0.7,2.8-0.7,2.8-0.7c1.5,0.1,5,0.4,7.4-3.1c4.3-0.5,7.1-5.5,7.7-6.6c1.2-2.4,0.9-8.1,0.9-8.1c-0.2-2.9-2.7-2.9-4-3
			c-0.2,0-0.4,0-0.7,0c-0.6,0-1.8-0.2-3-0.3c-2-0.2-4.2-0.5-5.4-0.5c-1.1,0-1.4,0-2.5-2.1c-1.3-2.5-5.2-5.3-15.9-4.8
			c-9.9,0.5-13.6,8-16.6,15.6C11.1,39.2,9,41.2,8,41.5c-0.1,0-0.2,0-0.2,0c-0.2-0.4-0.6-1.6-0.8-3.7C7,37.3,7,36.7,7,36.1
			C7,19.5,20.5,6,37.1,6c16.6,0,30.1,13.5,30.1,30.1C67.2,49.4,58.3,61.3,45.5,65z"/>
	</g>
	<g>
		<g>
			<path class="st0" d="M95.2,31.1c0.4,0.6,0.2,1.5-0.5,1.8c-0.4,0.2-0.8,0.4-1.2,0.6c-0.8,0.3-1.7,0.5-2.6,0.5
				c-0.7,0-1.4-0.1-2-0.3c-0.6-0.2-1.3-0.4-1.8-0.8c-0.6-0.3-1.1-0.7-1.5-1.2c-0.5-0.5-0.9-1-1.2-1.5c-0.3-0.6-0.6-1.2-0.8-1.8
				c-0.2-0.6-0.3-1.3-0.3-2c0-0.7,0.1-1.4,0.3-2c0.2-0.7,0.4-1.3,0.8-1.8c0.3-0.6,0.7-1.1,1.2-1.5c0.5-0.5,1-0.9,1.5-1.2
				c0.6-0.3,1.2-0.6,1.8-0.8c0.6-0.2,1.3-0.3,2-0.3c0.9,0,1.8,0.2,2.6,0.5c0.4,0.2,0.8,0.3,1.2,0.6c0.6,0.4,0.8,1.2,0.5,1.8
				l-0.1,0.2c-0.4,0.6-1.2,0.8-1.8,0.4c-0.1-0.1-0.3-0.2-0.5-0.2c-0.6-0.2-1.2-0.4-1.8-0.4c-0.7,0-1.3,0.1-1.8,0.4
				c-0.6,0.2-1.1,0.6-1.5,1c-0.4,0.4-0.8,0.9-1,1.5c-0.2,0.6-0.4,1.2-0.4,1.8c0,0.6,0.1,1.2,0.4,1.8c0.2,0.6,0.6,1.1,1,1.5
				c0.4,0.4,0.9,0.8,1.5,1c0.6,0.2,1.2,0.4,1.8,0.4c0.6,0,1.3-0.1,1.8-0.4c0.2-0.1,0.3-0.1,0.5-0.2c0.6-0.4,1.5-0.2,1.8,0.4
				L95.2,31.1z"/>
			<path class="st0" d="M112.6,26.4c0,0.7-0.1,1.4-0.3,2c-0.2,0.6-0.4,1.3-0.8,1.8c-0.3,0.6-0.7,1.1-1.2,1.5c-0.5,0.5-1,0.9-1.5,1.2
				c-0.6,0.3-1.2,0.6-1.8,0.8c-0.7,0.2-1.3,0.3-2,0.3c-0.7,0-1.4-0.1-2-0.3c-0.6-0.2-1.3-0.4-1.8-0.8c-0.6-0.3-1.1-0.7-1.5-1.2
				c-0.5-0.5-0.9-1-1.2-1.5c-0.3-0.6-0.6-1.2-0.8-1.8c-0.2-0.6-0.3-1.3-0.3-2c0-0.7,0.1-1.4,0.3-2c0.2-0.7,0.4-1.3,0.8-1.8
				c0.3-0.6,0.7-1.1,1.2-1.5c0.5-0.5,1-0.9,1.5-1.2c0.6-0.3,1.2-0.6,1.8-0.8c0.6-0.2,1.3-0.3,2-0.3c0.7,0,1.4,0.1,2,0.3
				c0.7,0.2,1.3,0.4,1.8,0.8c0.6,0.3,1.1,0.7,1.5,1.2c0.5,0.5,0.9,1,1.2,1.5c0.3,0.6,0.6,1.2,0.8,1.8
				C112.5,25,112.6,25.7,112.6,26.4z M109.7,26.4c0-0.6-0.1-1.3-0.4-1.8c-0.2-0.6-0.6-1.1-1-1.5c-0.4-0.4-0.9-0.8-1.5-1
				c-0.6-0.2-1.2-0.4-1.8-0.4c-0.7,0-1.3,0.1-1.8,0.4c-0.6,0.2-1.1,0.6-1.5,1c-0.4,0.4-0.8,0.9-1,1.5c-0.2,0.6-0.4,1.2-0.4,1.8
				c0,0.6,0.1,1.2,0.4,1.8c0.2,0.6,0.6,1.1,1,1.5c0.4,0.4,0.9,0.8,1.5,1c0.6,0.2,1.2,0.4,1.8,0.4c0.6,0,1.3-0.1,1.8-0.4
				c0.6-0.2,1.1-0.6,1.5-1c0.4-0.4,0.8-0.9,1-1.5C109.6,27.6,109.7,27,109.7,26.4z"/>
			<path class="st0" d="M126.1,33.7H125c-0.5,0-0.9-0.3-1.1-0.7l-4-6.9c-0.3-0.6-1.3-0.3-1.3,0.3v5.9c0,0.7-0.6,1.3-1.3,1.3h-0.3
				c-0.7,0-1.3-0.6-1.3-1.3V20.3c0-0.7,0.6-1.3,1.3-1.3h1.1c0.5,0,0.9,0.3,1.1,0.7l4,6.9c0.3,0.6,1.3,0.3,1.3-0.3v-5.9
				c0-0.7,0.6-1.3,1.3-1.3h0.3c0.7,0,1.3,0.6,1.3,1.3v12.1C127.4,33.1,126.8,33.7,126.1,33.7z"/>
			<path class="st0" d="M141.5,33.7h-0.8c-0.5,0-1-0.3-1.3-0.7l-4-6.8c-0.3-0.6-1.3-0.3-1.3,0.3v5.7c0,0.8-0.7,1.5-1.5,1.5h0
				c-0.8,0-1.5-0.7-1.5-1.5V20.4c0-0.8,0.7-1.5,1.5-1.5h0.8c0.5,0,1,0.3,1.3,0.7l4,6.8c0.3,0.6,1.3,0.3,1.3-0.3v-5.8
				c0-0.8,0.7-1.5,1.5-1.5l0,0c0.8,0,1.5,0.7,1.5,1.5v11.8C143,33,142.3,33.7,141.5,33.7z"/>
			<path class="st0" d="M155.5,33.7h-7.4c-0.7,0-1.3-0.6-1.3-1.3V20.3c0-0.7,0.6-1.3,1.3-1.3h7.4c0.7,0,1.3,0.6,1.3,1.3v0.3
				c0,0.7-0.6,1.3-1.3,1.3H151c-0.7,0-1.3,0.6-1.3,1.3v0.3c0,0.7,0.6,1.3,1.3,1.3h2.2c0.7,0,1.3,0.6,1.3,1.3v0.3
				c0,0.7-0.6,1.3-1.3,1.3H151c-0.7,0-1.3,0.6-1.3,1.3v0.3c0,0.7,0.6,1.3,1.3,1.3h4.5c0.7,0,1.3,0.6,1.3,1.3v0.3
				C156.8,33.1,156.2,33.7,155.5,33.7z"/>
			<path class="st0" d="M170.7,31.1c0.4,0.6,0.2,1.5-0.5,1.8c-0.4,0.2-0.8,0.4-1.2,0.6c-0.8,0.3-1.7,0.5-2.6,0.5
				c-0.7,0-1.4-0.1-2-0.3c-0.6-0.2-1.3-0.4-1.8-0.8c-0.6-0.3-1.1-0.7-1.5-1.2c-0.5-0.5-0.9-1-1.2-1.5c-0.3-0.6-0.6-1.2-0.8-1.8
				c-0.2-0.6-0.3-1.3-0.3-2c0-0.7,0.1-1.4,0.3-2c0.2-0.7,0.4-1.3,0.8-1.8c0.3-0.6,0.7-1.1,1.2-1.5c0.5-0.5,1-0.9,1.5-1.2
				c0.6-0.3,1.2-0.6,1.8-0.8c0.6-0.2,1.3-0.3,2-0.3c0.9,0,1.8,0.2,2.6,0.5c0.4,0.2,0.8,0.3,1.2,0.6c0.6,0.4,0.8,1.2,0.5,1.8
				l-0.1,0.2c-0.4,0.6-1.2,0.8-1.8,0.4c-0.1-0.1-0.3-0.2-0.5-0.2c-0.6-0.2-1.2-0.4-1.8-0.4c-0.7,0-1.3,0.1-1.8,0.4
				c-0.6,0.2-1.1,0.6-1.5,1c-0.4,0.4-0.8,0.9-1,1.5c-0.2,0.6-0.4,1.2-0.4,1.8c0,0.6,0.1,1.2,0.4,1.8c0.2,0.6,0.6,1.1,1,1.5
				c0.4,0.4,0.9,0.8,1.5,1c0.6,0.2,1.2,0.4,1.8,0.4c0.6,0,1.3-0.1,1.8-0.4c0.2-0.1,0.3-0.1,0.5-0.2c0.6-0.4,1.5-0.2,1.8,0.4
				L170.7,31.1z"/>
			<path class="st0" d="M179,33.7h-0.3c-0.7,0-1.3-0.6-1.3-1.3v-9.1c0-0.7-0.6-1.3-1.3-1.3h-1.8c-0.7,0-1.3-0.6-1.3-1.3v-0.3
				c0-0.7,0.6-1.3,1.3-1.3h9.1c0.7,0,1.3,0.6,1.3,1.3v0.3c0,0.7-0.6,1.3-1.3,1.3h-1.8c-0.7,0-1.3,0.6-1.3,1.3v9.1
				C180.3,33.1,179.7,33.7,179,33.7z"/>
			<path class="st0" d="M196.1,33.7h-7.4c-0.7,0-1.3-0.6-1.3-1.3V20.3c0-0.7,0.6-1.3,1.3-1.3h7.4c0.7,0,1.3,0.6,1.3,1.3v0.3
				c0,0.7-0.6,1.3-1.3,1.3h-4.5c-0.7,0-1.3,0.6-1.3,1.3v0.3c0,0.7,0.6,1.3,1.3,1.3h2.2c0.7,0,1.3,0.6,1.3,1.3v0.3
				c0,0.7-0.6,1.3-1.3,1.3h-2.2c-0.7,0-1.3,0.6-1.3,1.3v0.3c0,0.7,0.6,1.3,1.3,1.3h4.5c0.7,0,1.3,0.6,1.3,1.3v0.3
				C197.4,33.1,196.8,33.7,196.1,33.7z"/>
			<path class="st0" d="M212.4,26.3c0,0.7-0.1,1.3-0.3,2c-0.2,0.6-0.4,1.2-0.7,1.8c-0.3,0.5-0.7,1-1.2,1.5c-0.4,0.4-0.9,0.8-1.5,1.2
				c-0.5,0.3-1.1,0.6-1.8,0.7c-0.6,0.2-1.3,0.3-2,0.3h-3.1c-0.7,0-1.3-0.6-1.3-1.3V20.3c0-0.7,0.6-1.3,1.3-1.3h3.1
				c0.7,0,1.3,0.1,2,0.3c0.6,0.2,1.2,0.4,1.8,0.7c0.5,0.3,1,0.7,1.5,1.2c0.4,0.4,0.8,0.9,1.2,1.5c0.3,0.5,0.6,1.1,0.7,1.8
				C212.3,25,212.4,25.6,212.4,26.3z M209.4,26.3c0-0.6-0.1-1.2-0.3-1.7c-0.2-0.5-0.5-1-0.9-1.4c-0.4-0.4-0.9-0.7-1.4-1
				c-0.5-0.2-1.1-0.3-1.7-0.3h-0.1c-0.7,0-1.3,0.6-1.3,1.3v6.2c0,0.7,0.6,1.3,1.3,1.3h0.1c0.6,0,1.2-0.1,1.7-0.3
				c0.5-0.2,1-0.5,1.4-0.9c0.4-0.4,0.7-0.9,0.9-1.4C209.3,27.5,209.4,26.9,209.4,26.3z"/>
		</g>
		<path class="st0" d="M28.9,66.7c-0.2,0-0.3,0-0.5-0.1C19.8,64,12.7,57.7,9,49.5c-0.4-0.8,0-1.8,0.8-2.2c0.8-0.4,1.8,0,2.2,0.8
			c3.4,7.3,9.7,12.9,17.4,15.3c0.9,0.3,1.4,1.2,1.1,2.1C30.3,66.2,29.6,66.7,28.9,66.7z"/>
	</g>
</g>
</svg>
